<?xml version="1.0" encoding="utf-8"?>
<!-- Generator: Adobe Illustrator 18.0.0, SVG Export Plug-In . SVG Version: 6.00 Build 0)  -->
<!DOCTYPE svg PUBLIC "-//W3C//DTD SVG 1.1//EN" "http://www.w3.org/Graphics/SVG/1.1/DTD/svg11.dtd">
<svg version="1.1" id="_xB9_Ã_xBC_h_x5F_1" xmlns="http://www.w3.org/2000/svg" xmlns:xlink="http://www.w3.org/1999/xlink"
	 x="0px" y="0px" viewBox="0 0 250 250" enable-background="new 0 0 250 250" xml:space="preserve">
<g>
	<g>
		<g>
			<circle fill="#C1218C" cx="125" cy="125" r="125"/>
		</g>
	</g>
</g>
<g>
	<g>
		<path fill="#C1218C" d="M125,0c-0.5,0-0.9,0-1.4,0v250c0.5,0,0.9,0,1.4,0c69,0,125-56,125-125S194,0,125,0z"/>
	</g>
</g>
<g>
	<g>
		<circle fill="#FFFFFF" cx="124.5" cy="125" r="102.9"/>
	</g>
</g>
<g>
	<g>
		<path fill="#762558" d="M123.6,21.4c-0.4,0-0.7,0.3-0.7,0.7v13.3c0,0.4,0.3,0.7,0.7,0.7c0.4,0,0.7-0.3,0.7-0.7V22.1
			C124.3,21.7,124,21.4,123.6,21.4z"/>
	</g>
</g>
<g>
	<g>
		<path fill="#762558" d="M228.1,124.1h-13.3c-0.4,0-0.7,0.3-0.7,0.7c0,0.4,0.3,0.7,0.7,0.7h13.3c0.4,0,0.7-0.3,0.7-0.7
			C228.8,124.5,228.5,124.1,228.1,124.1z"/>
	</g>
</g>
<g>
	<g>
		<path fill="#762558" d="M123.9,216.7c-0.4,0-0.7,0.3-0.7,0.7v13.3c0,0.4,0.3,0.7,0.7,0.7c0.4,0,0.7-0.3,0.7-0.7v-13.3
			C124.6,217,124.3,216.7,123.9,216.7z"/>
	</g>
</g>
<g>
	<g>
		<g>
			<path fill="#00D1BF" d="M32.8,124.2H19.5c-0.4,0-0.7,0.3-0.7,0.7c0,0.4,0.3,0.7,0.7,0.7h13.3c0.4,0,0.7-0.3,0.7-0.7
				C33.5,124.5,33.2,124.2,32.8,124.2z"/>
		</g>
	</g>
</g>
<g>
	<g>
		<path fill="#2CACCA" d="M49.4,53.2c-0.3-0.3-0.7-0.3-1,0c-0.3,0.3-0.3,0.7,0,1l9.4,9.4c0.1,0.1,0.3,0.2,0.5,0.2
			c0.2,0,0.4-0.1,0.5-0.2c0.3-0.3,0.3-0.7,0-1L49.4,53.2z"/>
	</g>
</g>
<g>
	<g>
		<path fill="#2CACCA" d="M196,51l-9.4,9.4c-0.3,0.3-0.3,0.7,0,1c0.1,0.1,0.3,0.2,0.5,0.2c0.2,0,0.4-0.1,0.5-0.2l9.4-9.4
			c0.3-0.3,0.3-0.7,0-1C196.7,50.8,196.2,50.8,196,51z"/>
	</g>
</g>
<g>
	<g>
		<path fill="#2CACCA" d="M189.7,189.1c-0.3-0.3-0.7-0.3-1,0c-0.3,0.3-0.3,0.7,0,1l9.4,9.4c0.1,0.1,0.3,0.2,0.5,0.2
			c0.2,0,0.4-0.1,0.5-0.2c0.3-0.3,0.3-0.7,0-1L189.7,189.1z"/>
	</g>
</g>
<g>
	<g>
		<path fill="#2CACCA" d="M60,191.3l-9.4,9.4c-0.3,0.3-0.3,0.7,0,1c0.1,0.1,0.3,0.2,0.5,0.2c0.2,0,0.4-0.1,0.5-0.2l9.4-9.4
			c0.3-0.3,0.3-0.7,0-1C60.8,191.1,60.3,191.1,60,191.3z"/>
	</g>
</g>
<g>
	<g>
		<path fill="#2CACCA" d="M125,12.2C62.8,12.2,12.2,62.8,12.2,125c0,62.2,50.6,112.8,112.8,112.8c62.2,0,112.8-50.6,112.8-112.8
			C237.8,62.8,187.2,12.2,125,12.2z M125,228.2c-56.9,0-103.2-46.3-103.2-103.2S68.1,21.8,125,21.8S228.2,68.1,228.2,125
			S181.9,228.2,125,228.2z"/>
	</g>
</g>
<g>
	<rect x="119.7" y="125" fill="#DD45B3" width="8" height="59.3"/>
</g>
<g>
	<rect x="123.8" y="43.2" fill="#DD45B3" width="4" height="81.5"/>
</g>
<g>
	<rect x="119.7" y="124.7" fill="#C1218C" width="4" height="59.3"/>
</g>
<g>
	<rect x="119.7" y="43.2" fill="#C1218C" width="4" height="81.5"/>
</g>
<g>
	<path fill="#2CACCA" d="M120,12.2c-0.5,0-1,0-1.4,0v9.7c0.5,0,1,0,1.4,0c59.4,0,107.7,46.3,107.7,103.2S179.4,228.2,120,228.2
		c-0.5,0-1,0-1.4,0v9.7c0.5,0,1,0,1.4,0c65,0,117.8-50.6,117.8-112.8C237.8,62.8,185,12.2,120,12.2z"/>
</g>
<circle fill="#C1218C" cx="123.8" cy="124.8" r="6.4"/>
</svg>
