<?xml version="1.0" encoding="utf-8"?>
<!-- Generator: Adobe Illustrator 18.0.0, SVG Export Plug-In . SVG Version: 6.00 Build 0)  -->
<!DOCTYPE svg PUBLIC "-//W3C//DTD SVG 1.1//EN" "http://www.w3.org/Graphics/SVG/1.1/DTD/svg11.dtd">
<svg version="1.1" id="Isolation_Mode" xmlns="http://www.w3.org/2000/svg" xmlns:xlink="http://www.w3.org/1999/xlink" x="0px"
	 y="0px" viewBox="0 0 121.4 80" enable-background="new 0 0 121.4 80" xml:space="preserve">
<g>
	<g id="XMLID_1_">
		<g>
			<path fill="#425A6E" d="M94.4,9.7c5.9,0,26.8,27.1,26.8,31.7c-0.2,8.3,0,16.4,0,21.2c0,2.8-2.2,4.6-5.6,4.7c0,0,0,0,0,0
				c0-0.3,0-0.5,0-0.8c0-8.5-6.9-15.3-15.3-15.3c-8.5,0-15.3,6.9-15.3,15.3c0,0.3,0,0.5,0.1,0.8c-0.8,0-18.2,0-36,0
				c0-0.2,0.1-0.5,0.1-0.7C49,58,42.1,51,33.5,51c-8.6,0-15.6,7-15.6,15.6c0,0.2,0.1,0.5,0.1,0.7c-4.6,0-7.6,0-7.6,0V59H0.3V33.8
				h43.5v-8H0.3V0.3h70.5v56h2.5V9.7C80.5,9.7,87.8,9.7,94.4,9.7z M117.2,43.1c0,0,0-1.8,0-2c-0.1-0.9-0.3-2-1.3-3.5
				c-1.3-1.9-17.4-20.2-19.4-22.4c-2-2.2-4.5-2.1-4.5-2.1h-4.7v29.9H117.2z"/>
			<path fill="#425A6E" d="M100.5,53.6c7.2,0,13.1,5.9,13.1,13.1c0,7.2-5.8,13.1-13.1,13.1c-7.2,0-13.1-5.9-13.1-13.1
				C87.4,59.5,93.3,53.6,100.5,53.6z M110.4,66.2c0-5.5-4.5-10-10-10c-5.5,0-10,4.5-10,10c0,5.6,4.5,10,10,10
				C105.9,76.2,110.4,71.7,110.4,66.2z"/>
			<path fill="#425A6E" d="M100.4,56.2c5.5,0,10,4.5,10,10c0,5.6-4.5,10-10,10c-5.5,0-10-4.5-10-10C90.4,60.6,94.9,56.2,100.4,56.2z
				 M109.1,66.7c0-4.8-3.8-8.6-8.6-8.6c-4.8,0-8.6,3.8-8.6,8.6c0,4.8,3.9,8.6,8.6,8.6C105.2,75.3,109.1,71.4,109.1,66.7z"/>
			<path fill="#425A6E" d="M33.4,53.6c7.2,0,13.1,5.9,13.1,13.1c0,7.2-5.9,13.1-13.1,13.1c-7.2,0-13.1-5.9-13.1-13.1
				C20.3,59.5,26.2,53.6,33.4,53.6z M43.3,66.2c0-5.5-4.5-10-10-10s-10,4.5-10,10c0,5.6,4.5,10,10,10S43.3,71.7,43.3,66.2z"/>
			<path fill="#425A6E" d="M33.3,56.2c5.5,0,10,4.5,10,10c0,5.6-4.5,10-10,10s-10-4.5-10-10C23.3,60.6,27.8,56.2,33.3,56.2z
				 M42,66.7c0-4.8-3.8-8.6-8.6-8.6c-4.8,0-8.6,3.8-8.6,8.6c0,4.8,3.9,8.6,8.6,8.6C38.2,75.3,42,71.4,42,66.7z"/>
		</g>
		<g>
		</g>
	</g>
</g>
</svg>
