<?xml version="1.0" encoding="utf-8"?>
<!-- Generator: Adobe Illustrator 18.0.0, SVG Export Plug-In . SVG Version: 6.00 Build 0)  -->
<!DOCTYPE svg PUBLIC "-//W3C//DTD SVG 1.1//EN" "http://www.w3.org/Graphics/SVG/1.1/DTD/svg11.dtd">
<svg version="1.1" id="Isolation_Mode" xmlns="http://www.w3.org/2000/svg" xmlns:xlink="http://www.w3.org/1999/xlink" x="0px"
	 y="0px" viewBox="0 0 67.9 37.8" enable-background="new 0 0 67.9 37.8" xml:space="preserve">
<polygon fill="#363635" points="65.4,35 3.9,35 3.9,37.8 67.9,37.8 67.9,5 65.4,5 "/>
<path fill="#363635" d="M63.6,0H0v32.8h63.6V0z M60.8,29.8h-58V2.5h58V29.8z"/>
<path fill="#363635" d="M8.7,27.2L8.7,27.2l17,0.1c-3.5-2.4-5.8-6.4-5.8-10.9c0-4.9,2.7-9.2,6.7-11.5H8.6c0,0.2,0.1,0.4,0.1,0.6
	c0,1.8-1.4,3.2-3.2,3.2l-0.2,0v15.4l0.2,0C7.3,24.1,8.7,25.5,8.7,27.2z M12,14.3c1.2,0,2.1,1,2.1,2.1c0,1.2-1,2.1-2.1,2.1
	c-1.2,0-2.1-1-2.1-2.1C9.9,15.2,10.8,14.3,12,14.3z"/>
<path fill="#363635" d="M46,16.4c0,4.6-2.3,8.6-5.8,10.9H55l0-0.1c0-1.7,1.4-3.2,3.2-3.2l0.2,0V8.7l-0.2,0c-1.7,0-3.2-1.4-3.2-3.2
	C55,5.3,55,5.1,55,5H39.3C43.3,7.2,46,11.5,46,16.4z M51.6,14.3c1.2,0,2.1,1,2.1,2.1c0,1.2-1,2.1-2.1,2.1c-1.2,0-2.1-1-2.1-2.1
	C49.5,15.2,50.5,14.3,51.6,14.3z"/>
</svg>
