<?xml version="1.0" encoding="utf-8"?>
<!-- Generator: Adobe Illustrator 18.0.0, SVG Export Plug-In . SVG Version: 6.00 Build 0)  -->
<!DOCTYPE svg PUBLIC "-//W3C//DTD SVG 1.1//EN" "http://www.w3.org/Graphics/SVG/1.1/DTD/svg11.dtd">
<svg version="1.1" id="Слой_1" xmlns="http://www.w3.org/2000/svg" xmlns:xlink="http://www.w3.org/1999/xlink" x="0px" y="0px"
	 viewBox="0 0 45.5 63.8" enable-background="new 0 0 45.5 63.8" xml:space="preserve">
<g>
	<g>
		<g>
			<rect x="2.1" y="40.5" fill="#049FAF" width="41.4" height="23"/>
			<polygon fill="#049B9B" points="43.4,40.4 43.4,63.3 2.1,63.3 			"/>
			<polygon fill="#27AACB" points="6.4,47.2 2.1,50.8 2.1,43.5 			"/>
			<polygon fill="#27AACB" points="43.5,43.5 43.5,50.9 43.4,50.9 39.1,47.2 43.4,43.5 			"/>
			<polygon fill="#27AACB" points="15.2,52.6 21.6,47.2 15.2,41.7 8.8,47.2 			"/>
			<polygon fill="#27AACB" points="30.3,52.6 36.7,47.2 30.3,41.7 23.9,47.2 			"/>
			<polygon fill="#27AACB" points="14,57 7.6,62.5 2.1,57.8 2.1,56.2 7.6,51.5 13.8,56.8 			"/>
			<polygon fill="#27AACB" points="22.7,62.5 29.1,57 22.7,51.5 16.4,57 			"/>
			<polygon fill="#27AACB" points="43.5,56.3 43.5,57.7 43.4,57.7 37.9,62.5 31.5,57 37.9,51.5 43.4,56.3 			"/>
			<rect x="0" y="11" fill="#27AACB" width="45.5" height="10.3"/>
			<polygon fill="#049FAF" points="45.5,11 0,21.4 45.5,21.4 			"/>
			<rect x="0" y="11" fill="#3FAEBA" width="45.5" height="1.7"/>
			<rect x="19.8" y="11.1" fill="#CC2696" width="6" height="10.3"/>
			<rect x="19.8" y="40.4" fill="#CC2696" width="6" height="23"/>
			<rect x="2" y="49.3" fill="#CC2696" width="41.4" height="5.1"/>
			<rect x="2.1" y="40.4" fill="#038C8C" width="41.4" height="1.3"/>
			<rect x="2.1" y="62.5" fill="#038C8C" width="41.4" height="1.3"/>
			<rect x="19.8" y="40.4" fill="#B52696" width="6" height="1.3"/>
			<rect x="19.8" y="11" fill="#B52696" width="6" height="1.7"/>
			<rect x="19.8" y="62.5" fill="#B52696" width="6" height="1.3"/>
			<polygon fill="#B52696" points="22.8,11 36.2,3.3 37.7,9.7 25.7,11 			"/>
			<polygon fill="#B52696" points="22.8,11 22.8,9.6 30.1,0 32.6,4.5 26.9,8.7 			"/>
			<polygon fill="#CC2696" points="22.8,11 9.4,3.3 7.8,9.7 19.8,11 			"/>
			<polygon fill="#CC2696" points="22.8,11 22.8,9.6 15.5,0 13,4.5 18.6,8.7 			"/>
		</g>
	</g>
</g>
</svg>
