<?xml version="1.0" encoding="utf-8"?>
<!-- Generator: Adobe Illustrator 18.0.0, SVG Export Plug-In . SVG Version: 6.00 Build 0)  -->
<!DOCTYPE svg PUBLIC "-//W3C//DTD SVG 1.1//EN" "http://www.w3.org/Graphics/SVG/1.1/DTD/svg11.dtd">
<svg version="1.1" id="Layer_3" xmlns="http://www.w3.org/2000/svg" xmlns:xlink="http://www.w3.org/1999/xlink" x="0px" y="0px"
	 viewBox="0 0 66.3 66.3" enable-background="new 0 0 66.3 66.3" xml:space="preserve">
<g>
	<path fill="#424953" d="M63.5,46.9l-2-11.8l-9.2,7.7L43,50.4l5.8,2.1c-4.4,3.5-9.8,5.6-15.7,5.6c-12.4,0-23.1-9.2-24.9-21.5
		c-0.3-2.2-2.4-3.8-4.7-3.5c-2.2,0.3-3.8,2.4-3.5,4.7c2.3,16.3,16.5,28.6,33,28.6c9.5,0,18.2-4,24.4-10.6l8.1,3L63.5,46.9z"/>
	<path fill="#424953" d="M4.9,31.3l9.2-7.7l9.2-7.7l-5.8-2.1c4.4-3.5,9.8-5.6,15.7-5.6c12.4,0,23.1,9.2,24.9,21.5
		c0.3,2.2,2.4,3.8,4.7,3.5c2.2-0.3,3.8-2.4,3.5-4.7C63.9,12.3,49.7,0,33.2,0C23.8,0,15,4,8.9,10.6l-8.1-3l2,11.8L4.9,31.3z"/>
</g>
</svg>
